<?xml version="1.0" encoding="UTF-8"?><svg id="Layer_1" xmlns="http://www.w3.org/2000/svg" xmlns:xlink="http://www.w3.org/1999/xlink" viewBox="0 0 1850.28 827.32"><defs><style>.cls-1{clip-path:url(#clippath-1);}.cls-2{clip-path:url(#clippath);}</style><clipPath id="clippath"><polygon points="1477.91 816.75 1694.5 816.63 1735.38 641.33 1832.58 223.21 1609.84 222.65 1477.91 816.75"/></clipPath><clipPath id="clippath-1"><path d="M1730.81,141.92c1.54-9.29,10.66-18.55,20.96-20.26,10.29-1.72,16.64,4.79,14.94,14.07-1.56,9.27-11,18.03-20.96,19.74-1.01.16-2,.24-2.94.24-8,0-13.22-5.66-12-13.79M1693.05,138.66c14.07-9.61,29.18-16.48,44.81-19.58-15.29,11-21.29,28.15-13.73,38.97-13.22-2.92-23.7-9.61-31.08-19.39M1773.75,119.07c13.22,3.1,23.34,9.79,30.72,19.58-14.42,9.6-29.53,16.46-44.63,19.39,15.27-11.16,21.11-27.97,13.91-38.97M1610.8,204.23h228.02l-43.95-197.44-184.06,197.44Z"/></clipPath></defs><path d="M668.57,583.28c-8.53,36.57-19.07,71.19-34.82,105.22-21.47,46.41-56.18,83.72-103.32,105.25-34.22,15.64-72.24,27.42-111.23,27.42.62.85-.4,1.25-1.84,1.25H157.26c-1.44,0-2.46-.4-1.84-1.25-64.9-4.65-126.49-32.35-146.61-100.12-4.53-15.24-6.46-30.17-8.61-46.35-1.11-28.02,2.49-55.3,8.16-83.09l13.68-67.11,204.12.08-15.52,73.91c-2.89,13.77-1.36,27.08,7.79,38.16,8.58,6.32,19.15,12.55,30.88,12.58l135.76.06c13.03,0,26.04-4.56,36.72-11.42,15.3-9.77,25.53-25.55,29.8-43.91l54.17-231.74L583.95,28.68l40.46-.4,171.57,1.59-98.28,429.01c-3.57,6.94-3.37,13.6-5.07,20.96l-24.05,103.43Z"/><path d="M1302.92,208h-65.33l-.34.82-.28.71,69.18-.06c.4-1.05-1.36-1.47-3.23-1.47ZM1311.19,29.18l-.03.09,16.09-.03c-5.35-.03-10.71-.03-16.06-.06ZM844.19,29.75l-48.16,200.95-40.57,173.27-37.59,160.92-58.3,251.86c-.03.14-.09.28-.14.4-.54,1.42-2.04,2.97-.4,5.27h562.95c1.7-.31,2.61-.2,1.98-1.22l-347.56-.17h-.62l64.82-165.87c.99-2.55,1.98-5.07,3.03-7.59l-32.07-.34,9.46-40.91,22.27-89.55c-.2-.31.42-1.61,1.62-1.61l60.03.31c4.39-9.04,8.78-18.16,13.03-27.25l-121.65-.85,128.71-146.75-41.5.06,30.77-130.97,127.4-.09.91-1.02.51-.57,160.41-178.74.11-.11c-151.71-.57-308.46-.94-459.43.59Z"/><path d="M1302.92,208h-65.33l-.34.82-.28.71,69.18-.06c.4-1.05-1.36-1.47-3.23-1.47ZM1311.19,29.18l-.03.09,16.09-.03c-5.35-.03-10.71-.03-16.06-.06ZM844.19,29.75l-48.16,200.95-40.57,173.27-37.59,160.92-58.3,251.86c-.03.14-.09.28-.14.4-.62,1.87-.37,3.37.71,4.53l215.4.06h.23l345.97.09,2.24-.62-347.56-.17h-.62l64.82-165.87c.99-2.55,1.98-5.07,3.03-7.59l-32.07-.34,9.46-40.91,22.27-89.55c-.2-.31.42-1.61,1.62-1.61l60.03.31c4.39-9.04,8.78-18.16,13.03-27.25l-121.65-.85,128.71-146.75-41.5.06,30.77-130.97,127.4-.09.91-1.02.51-.57,160.41-178.74.11-.11c-151.71-.57-308.46-.94-459.43.59Z"/><path d="M1303.62,29.15l-.11.11-459.32.48c150.97-1.53,307.73-1.16,459.43-.59Z"/><path d="M1327.25,29.24l-16.09.03.03-.09c5.35.03,10.71.03,16.06.06Z"/><path d="M1221.98,822.4h-562.95c-1.64-2.29-.14-3.85.4-5.27.06-.11.11-.25.14-.4.17,1.13-.14,2.35,1.02,4.19l215.2.09h.62l347.56.17c.62,1.02-.28.91-1.98,1.22Z"/><path d="M1142.59,208.57l-.91,1.02-127.4.09c42.18-.71,85.19-1.05,128.31-1.1Z"/><path d="M1306.15,209.48l-69.18.06.28-.71c23.12.14,46.12.37,68.9.65Z"/><path d="M1143.1,208l-.51.57-.91,1.02-127.4.09c-.57-1.02.09-1.27,1.62-1.67h127.2Z"/><path d="M1224.7,396.29l-97.2,103.66-14.62,15.75-122.59,132.33-18.02,19.46c2.58-6.57,5.21-13.09,7.96-19.55,18.87-45.02,41.19-88.14,62.36-132.33,2.52-5.24,5.01-10.51,7.48-15.78l21.19-45.27-100.37-.71,99.38-113.32,19.21-21.9,97.91-109.07.85-.99.54-.57,22.27-24.82-10.23,24.82-.23.62-.4.93-53.88,130.89-22.21,54,100.6,1.84Z"/><path d="M1306.15,209.48l-69.18.06.28-.71.34-.82h65.33c1.87,0,3.63.43,3.23,1.47Z"/><path d="M1552.14,247.78c-4.99,27.76-12.38,54.08-22.89,80.18-22.69,56.38-57.54,75.93-112.9,93.21,45.78,12.98,73.06,42.81,77.03,89.35,2.24,10.85.99,21.22.17,32.04-3.37,44.28-10.4,83.72-25.36,125.59-19.69,55.1-47.96,92.87-100.63,119.98-44.96,23.17-93.89,33.09-143.61,33.06l-347.56-.17,160.18-172.9.68-.76c23.15-.17,46.46.09,69.1.76l72.72-.45c20.57-.11,40.4-.06,60.03-5.38,38.73-10.54,44.34-53.12,44.9-87.4.28-18.67-10.6-33.74-30.11-36.04-9.8-1.16-19.94-2.95-30.48-2.97l-64.17-.09,142.62-152.08-127.4-2.32,8.64-20.99,104.91-.11c22.52-.03,40.31-15.41,47.37-34.82,6.32-17.34,8.5-34.05,9.46-52.16.6-11.45.11-23.23-8.3-31.93-7.59-7.88-18.56-11.87-30.4-11.9.4-1.05-1.36-1.47-3.23-1.47h-65.33l73.57-178.74,16.09-.03c50.23-.06,102.84,3.14,149.64,25.24,53.15,25.04,79.61,64.08,82.04,123.24.99,23.83-2.58,46.38-6.8,70.06Z"/><path d="M795.97,29.87l-98.28,429.01c-3.57,6.94-3.37,13.6-5.07,20.96l-24.05,103.43c-8.53,36.57-19.07,71.19-34.82,105.22-21.47,46.41-56.18,83.72-103.32,105.25-34.22,15.64-72.24,27.42-111.23,27.42-86.83,1.1-176.89,1.08-263.78,0-64.9-4.65-126.49-32.35-146.61-100.12-4.53-15.24-6.46-30.17-8.61-46.35-1.11-28.02,2.49-55.3,8.16-83.09l13.68-67.11,204.12.08-15.52,73.91c-2.89,13.77-1.36,27.08,7.79,38.16,8.58,6.32,19.15,12.55,30.88,12.58l135.76.06c13.03,0,26.04-4.56,36.72-11.42,15.3-9.77,25.53-25.55,29.8-43.91l54.17-231.74L583.95,28.68l40.46-.4,1.84.68,169.73.91Z"/><path d="M417.36,822.42H157.26c-1.44,0-2.46-.4-1.84-1.25h263.78c.62.85-.4,1.25-1.84,1.25Z"/><path d="M795.97,29.87l-169.81-.26c-1.25-.17-2.32-.54-1.76-1.33l171.57,1.59Z"/><polygon points="876.4 821.02 875.75 821.72 875.35 822.15 875.52 821.72 875.78 821.02 876.4 821.02"/><polygon points="1477.91 816.75 1694.5 816.63 1735.38 641.33 1832.58 223.21 1609.84 222.65 1477.91 816.75"/><g class="cls-2"><rect x="1353.04" y="333.59" width="604.4" height="372.22" transform="translate(1086.45 2158.72) rotate(-88.29)"/></g><path d="M1730.81,141.92c1.54-9.29,10.66-18.55,20.96-20.26,10.29-1.72,16.64,4.79,14.94,14.07-1.56,9.27-11,18.03-20.96,19.74-1.01.16-2,.24-2.94.24-8,0-13.22-5.66-12-13.79M1693.05,138.66c14.07-9.61,29.18-16.48,44.81-19.58-15.29,11-21.29,28.15-13.73,38.97-13.22-2.92-23.7-9.61-31.08-19.39M1773.75,119.07c13.22,3.1,23.34,9.79,30.72,19.58-14.42,9.6-29.53,16.46-44.63,19.39,15.27-11.16,21.11-27.97,13.91-38.97M1610.8,204.23h228.02l-43.95-197.44-184.06,197.44Z"/><g class="cls-1"><rect x="1622.73" y="-11.39" width="204.15" height="233.8" transform="translate(1567.95 1826.41) rotate(-88.29)"/></g></svg>